<svg width="24" height="24" viewBox="0 0 24 24" fill="none" xmlns="http://www.w3.org/2000/svg">
<path fill-rule="evenodd" clip-rule="evenodd" d="M15 7.5C15 7.08579 15.3358 6.75 15.75 6.75H21.75C22.1642 6.75 22.5 7.08579 22.5 7.5C22.5 7.91421 22.1642 8.25 21.75 8.25H15.75C15.3358 8.25 15 7.91421 15 7.5Z" fill="#74E2C0"/>
<path fill-rule="evenodd" clip-rule="evenodd" d="M16.6387 10.2984C17.5541 9.80798 18.6112 9.64999 19.63 9.85132C20.6487 10.0526 21.5663 10.6008 22.2263 11.4026C22.8863 12.2043 23.2481 13.2101 23.25 14.2485C23.2504 14.4477 23.1715 14.6388 23.0308 14.7798C22.8901 14.9207 22.6991 14.9999 22.5 14.9999H15.8626C15.8734 15.0421 15.8852 15.0841 15.8979 15.126C16.0989 15.7877 16.523 16.3593 17.0981 16.7435C17.6732 17.1277 18.3637 17.3007 19.0519 17.233C19.7402 17.1654 20.3838 16.8613 20.8731 16.3725C21.1661 16.0797 21.641 16.0799 21.9337 16.373C22.2265 16.666 22.2262 17.1409 21.9332 17.4336C21.1985 18.1676 20.2322 18.6242 19.1987 18.7258C18.1652 18.8274 17.1284 18.5677 16.2649 17.9908C15.4014 17.4139 14.7645 16.5556 14.4626 15.5619C14.3503 15.1923 14.287 14.8124 14.2722 14.4316C14.2577 14.3734 14.25 14.3126 14.25 14.2499C14.25 14.1863 14.2579 14.1245 14.2728 14.0656C14.295 13.5454 14.4076 13.0293 14.6094 12.541C15.0062 11.5813 15.7233 10.7888 16.6387 10.2984ZM15.8661 13.4999H21.6527C21.5438 13.0836 21.3455 12.6928 21.0682 12.356C20.6287 11.822 20.0176 11.4569 19.3392 11.3229C18.6607 11.1888 17.9567 11.294 17.3471 11.6206C16.7375 11.9472 16.2599 12.475 15.9956 13.1141C15.9435 13.2402 15.9003 13.3691 15.8661 13.4999Z" fill="#74E2C0"/>
<path fill-rule="evenodd" clip-rule="evenodd" d="M2.25 6C2.25 5.58579 2.58579 5.25 3 5.25H8.0625C9.00733 5.25 9.91347 5.62533 10.5816 6.29343C11.2497 6.96153 11.625 7.86767 11.625 8.8125C11.625 9.69008 11.3012 10.5343 10.7197 11.1854C11.1831 11.3811 11.6091 11.6657 11.9717 12.0283C12.7102 12.7667 13.125 13.7682 13.125 14.8125C13.125 15.8568 12.7102 16.8583 11.9717 17.5967C11.2333 18.3352 10.2318 18.75 9.1875 18.75H3C2.58579 18.75 2.25 18.4142 2.25 18V6ZM3.75 12.375V17.25H9.1875C9.83397 17.25 10.454 16.9932 10.9111 16.5361C11.3682 16.079 11.625 15.459 11.625 14.8125C11.625 14.166 11.3682 13.546 10.9111 13.0889C10.454 12.6318 9.83397 12.375 9.1875 12.375H3.75ZM8.0625 10.875H3.75V6.75H8.0625C8.60951 6.75 9.13411 6.9673 9.52091 7.35409C9.9077 7.74089 10.125 8.26549 10.125 8.8125C10.125 9.35951 9.9077 9.88411 9.52091 10.2709C9.13411 10.6577 8.60951 10.875 8.0625 10.875Z" fill="#74E2C0"/>
</svg>
