<svg width="200" height="129" viewBox="0 0 200 129" fill="none" xmlns="http://www.w3.org/2000/svg">
<path d="M57.601 19.446H15.4897V61.4531H57.601V19.446Z" fill="#74E2C0"/>
<path d="M106.325 19.446H64.2134V61.4531H106.325V19.446Z" fill="#74E2C0"/>
<path d="M57.601 67.3135H15.4897V109.321H57.601V67.3135Z" fill="#74E2C0"/>
<path d="M106.325 67.3135H64.2134V109.321H106.325V67.3135Z" fill="#74E2C0"/>
<path d="M154.801 19.446H112.69V61.4531H154.801V19.446Z" fill="#74E2C0"/>
<path d="M126.355 77.7809H122.128V80.308H126.232V81.8004H122.128V85.313H126.355V86.8053H120.537V76.2886H126.355V77.7809Z" fill="white"/>
<path d="M132.015 81.3005L130.745 81.9763C130.544 81.568 130.297 81.3639 130 81.3639C129.859 81.3639 129.739 81.4096 129.637 81.5047C129.538 81.5962 129.485 81.7159 129.485 81.8637C129.485 82.1171 129.781 82.3705 130.374 82.6204C131.189 82.9688 131.736 83.2927 132.018 83.5883C132.301 83.884 132.442 84.2817 132.442 84.7815C132.442 85.422 132.205 85.957 131.733 86.3899C131.274 86.7982 130.716 87.0024 130.067 87.0024C128.952 87.0024 128.162 86.4603 127.696 85.3728L129.009 84.7674C129.192 85.0842 129.33 85.2883 129.425 85.3728C129.612 85.5452 129.834 85.6332 130.095 85.6332C130.614 85.6332 130.875 85.3974 130.875 84.9258C130.875 84.6548 130.674 84.3978 130.275 84.162C130.12 84.0846 129.965 84.0107 129.81 83.9367C129.654 83.8628 129.499 83.7889 129.337 83.7115C128.892 83.4933 128.578 83.2751 128.395 83.0568C128.162 82.7788 128.045 82.4233 128.045 81.9869C128.045 81.4096 128.243 80.9345 128.638 80.5579C129.044 80.1813 129.534 79.9912 130.113 79.9912C130.967 79.9877 131.599 80.4241 132.015 81.3005Z" fill="white"/>
<path d="M135.406 81.5998V86.8019H133.871V81.5998H133.215V80.1709H133.871V77.7388H135.406V80.1709H136.602V81.5998H135.406Z" fill="white"/>
<path d="M139.185 80.1707V83.9789C139.185 85.0771 139.619 85.6261 140.49 85.6261C141.362 85.6261 141.796 85.0771 141.796 83.9789V80.1707H143.33V84.0106C143.33 84.5421 143.263 84.9996 143.133 85.3868C143.006 85.7317 142.784 86.0414 142.47 86.3195C141.951 86.77 141.291 86.9953 140.49 86.9953C139.693 86.9953 139.036 86.77 138.518 86.3195C138.2 86.0414 137.974 85.7317 137.84 85.3868C137.713 85.0771 137.65 84.6195 137.65 84.0106V80.1707H139.185Z" fill="white"/>
<path d="M150.168 75.2996H151.71V86.8018H150.168V86.1084C149.562 86.6997 148.877 86.9954 148.115 86.9954C147.205 86.9954 146.45 86.6645 145.846 85.9993C145.25 85.3235 144.954 84.4788 144.954 83.4652C144.954 82.4761 145.25 81.649 145.846 80.9873C146.439 80.3186 147.183 79.9877 148.08 79.9877C148.859 79.9877 149.555 80.3045 150.168 80.9416V75.2996ZM146.524 83.4687C146.524 84.1057 146.693 84.6231 147.035 85.0209C147.385 85.4256 147.826 85.6262 148.358 85.6262C148.926 85.6262 149.389 85.4327 149.738 85.042C150.087 84.6372 150.264 84.1233 150.264 83.5039C150.264 82.8809 150.087 82.3706 149.738 81.9658C149.389 81.5716 148.934 81.3745 148.373 81.3745C147.843 81.3745 147.402 81.5751 147.049 81.9728C146.7 82.3741 146.524 82.8739 146.524 83.4687Z" fill="white"/>
<path d="M153.418 77.4113C153.418 77.1438 153.517 76.9115 153.711 76.7179C153.905 76.5243 154.141 76.4258 154.413 76.4258C154.692 76.4258 154.928 76.5243 155.122 76.7179C155.316 76.908 155.415 77.1438 155.415 77.4183C155.415 77.6964 155.316 77.9322 155.122 78.1258C154.932 78.3194 154.695 78.4179 154.42 78.4179C154.141 78.4179 153.905 78.3194 153.711 78.1258C153.517 77.9322 153.418 77.6929 153.418 77.4113ZM155.186 80.1707V86.8053H153.651V80.1707H155.186Z" fill="white"/>
<path d="M156.819 83.4406C156.819 82.4832 157.162 81.6667 157.85 80.9944C158.538 80.3222 159.374 79.9878 160.362 79.9878C161.353 79.9878 162.197 80.3257 162.888 81.0015C163.569 81.6772 163.912 82.5079 163.912 83.4934C163.912 84.4894 163.569 85.3201 162.881 85.9923C162.19 86.6611 161.339 86.9919 160.334 86.9919C159.339 86.9919 158.503 86.6505 157.829 85.9712C157.155 85.3025 156.819 84.4578 156.819 83.4406ZM158.39 83.4687C158.39 84.1304 158.566 84.6549 158.922 85.042C159.286 85.4327 159.766 85.6263 160.362 85.6263C160.962 85.6263 161.442 85.4327 161.802 85.0491C162.161 84.6619 162.341 84.148 162.341 83.5039C162.341 82.8598 162.161 82.3424 161.802 81.9588C161.438 81.5681 160.958 81.3745 160.362 81.3745C159.776 81.3745 159.3 81.5681 158.937 81.9588C158.573 82.346 158.39 82.8493 158.39 83.4687Z" fill="white"/>
<path d="M125.145 92.0391H126.687V103.541H125.145V102.848C124.538 103.439 123.854 103.735 123.092 103.735C122.181 103.735 121.426 103.404 120.823 102.739C120.227 102.063 119.927 101.218 119.927 100.205C119.927 99.2156 120.223 98.3885 120.823 97.7268C121.416 97.0581 122.16 96.7272 123.056 96.7272C123.836 96.7272 124.531 97.044 125.145 97.6811V92.0391ZM121.5 100.205C121.5 100.842 121.67 101.359 122.012 101.757C122.361 102.162 122.806 102.362 123.335 102.362C123.903 102.362 124.365 102.169 124.715 101.778C125.064 101.373 125.24 100.859 125.24 100.24C125.24 99.6169 125.064 99.1065 124.715 98.7018C124.365 98.3076 123.91 98.1105 123.349 98.1105C122.82 98.1105 122.379 98.3111 122.026 98.7088C121.673 99.1101 121.5 99.6098 121.5 100.205Z" fill="white"/>
<path d="M134.682 100.588H129.915C129.958 101.134 130.134 101.567 130.448 101.891C130.762 102.207 131.165 102.366 131.655 102.366C132.036 102.366 132.354 102.274 132.604 102.095C132.851 101.912 133.13 101.577 133.444 101.088L134.742 101.81C134.541 102.151 134.329 102.443 134.107 102.686C133.885 102.929 133.645 103.13 133.391 103.284C133.137 103.443 132.862 103.555 132.565 103.629C132.269 103.703 131.948 103.738 131.602 103.738C130.611 103.738 129.813 103.422 129.213 102.785C128.614 102.144 128.314 101.296 128.314 100.236C128.314 99.1875 128.606 98.3393 129.189 97.6882C129.774 97.0476 130.554 96.7273 131.524 96.7273C132.502 96.7273 133.278 97.037 133.846 97.66C134.411 98.2759 134.693 99.1347 134.693 100.229L134.682 100.588ZM133.105 99.3354C132.89 98.5188 132.375 98.1105 131.556 98.1105C131.369 98.1105 131.193 98.1387 131.03 98.195C130.868 98.2513 130.716 98.3323 130.582 98.4414C130.448 98.547 130.332 98.6772 130.237 98.825C130.141 98.9764 130.067 99.1453 130.018 99.3354H133.105Z" fill="white"/>
<path d="M145.582 92.0391H147.123V103.541H145.582V102.848C144.975 103.439 144.29 103.735 143.528 103.735C142.618 103.735 141.863 103.404 141.259 102.739C140.663 102.063 140.363 101.218 140.363 100.205C140.363 99.2156 140.659 98.3885 141.259 97.7268C141.852 97.0581 142.597 96.7272 143.493 96.7272C144.273 96.7272 144.968 97.044 145.582 97.6811V92.0391ZM141.937 100.205C141.937 100.842 142.106 101.359 142.448 101.757C142.798 102.162 143.242 102.362 143.771 102.362C144.34 102.362 144.802 102.169 145.151 101.778C145.5 101.373 145.677 100.859 145.677 100.24C145.677 99.6169 145.5 99.1065 145.151 98.7018C144.802 98.3076 144.347 98.1105 143.786 98.1105C143.256 98.1105 142.815 98.3111 142.462 98.7088C142.11 99.1101 141.937 99.6098 141.937 100.205Z" fill="white"/>
<path d="M148.831 94.1508C148.831 93.8833 148.93 93.651 149.124 93.4574C149.318 93.2638 149.555 93.1653 149.826 93.1653C150.105 93.1653 150.341 93.2638 150.535 93.4574C150.73 93.6475 150.828 93.8833 150.828 94.1578C150.828 94.4359 150.73 94.6717 150.535 94.8653C150.345 95.0589 150.108 95.1574 149.833 95.1574C149.555 95.1574 149.318 95.0589 149.124 94.8653C148.93 94.6717 148.831 94.4324 148.831 94.1508ZM150.599 96.9102V103.545H149.064V96.9102H150.599Z" fill="white"/>
<path d="M156.41 98.04L155.14 98.7158C154.939 98.3075 154.692 98.1034 154.395 98.1034C154.254 98.1034 154.134 98.1492 154.032 98.2442C153.933 98.3357 153.884 98.4554 153.884 98.6032C153.884 98.8566 154.18 99.11 154.769 99.3599C155.585 99.7084 156.131 100.032 156.414 100.328C156.696 100.623 156.837 101.021 156.837 101.521C156.837 102.162 156.601 102.697 156.128 103.129C155.669 103.538 155.112 103.742 154.463 103.742C153.348 103.742 152.557 103.2 152.095 102.112L153.408 101.507C153.591 101.824 153.729 102.028 153.824 102.112C154.011 102.285 154.233 102.373 154.494 102.373C155.013 102.373 155.274 102.137 155.274 101.665C155.274 101.394 155.073 101.137 154.674 100.902C154.519 100.824 154.364 100.75 154.208 100.676C154.053 100.602 153.898 100.528 153.736 100.451C153.291 100.233 152.974 100.015 152.794 99.7964C152.561 99.5183 152.444 99.1628 152.444 98.7264C152.444 98.1492 152.642 97.674 153.037 97.2974C153.443 96.9208 153.933 96.7307 154.512 96.7307C155.362 96.7272 155.994 97.1637 156.41 98.04Z" fill="white"/>
<path d="M164.275 100.588H159.508C159.55 101.134 159.727 101.567 160.041 101.891C160.355 102.207 160.757 102.366 161.248 102.366C161.629 102.366 161.946 102.274 162.197 102.095C162.444 101.912 162.723 101.577 163.037 101.088L164.335 101.81C164.134 102.151 163.922 102.443 163.7 102.686C163.478 102.929 163.238 103.13 162.984 103.284C162.73 103.443 162.454 103.555 162.158 103.629C161.862 103.703 161.54 103.738 161.195 103.738C160.203 103.738 159.406 103.422 158.806 102.785C158.206 102.144 157.906 101.296 157.906 100.236C157.906 99.1875 158.199 98.3393 158.781 97.6882C159.367 97.0476 160.147 96.7273 161.117 96.7273C162.094 96.7273 162.871 97.037 163.439 97.66C164.003 98.2759 164.286 99.1347 164.286 100.229L164.275 100.588ZM162.698 99.3354C162.483 98.5188 161.967 98.1105 161.149 98.1105C160.962 98.1105 160.785 98.1387 160.623 98.195C160.461 98.2513 160.309 98.3323 160.175 98.4414C160.041 98.547 159.924 98.6772 159.829 98.825C159.734 98.9764 159.66 99.1453 159.61 99.3354H162.698Z" fill="white"/>
<path d="M166.816 95.7804L165.919 95.0237L166.117 94.7456C166.244 94.5626 166.367 94.4113 166.484 94.2846C166.604 94.1614 166.724 94.0593 166.847 93.9784C166.971 93.8974 167.098 93.8411 167.228 93.8094C167.359 93.7742 167.504 93.7566 167.659 93.7566C168.015 93.7566 168.424 93.8763 168.894 94.1121C169.367 94.3514 169.674 94.4746 169.808 94.4746C170.062 94.4746 170.344 94.2282 170.654 93.739L171.522 94.4605C171.085 95.3334 170.492 95.7699 169.748 95.7699C169.494 95.7699 169.077 95.6431 168.499 95.3897C168.086 95.1821 167.775 95.0765 167.571 95.0765C167.324 95.0694 167.07 95.3053 166.816 95.7804ZM165.955 96.9102H167.496V97.5226C168.033 96.9912 168.64 96.7272 169.314 96.7272C170.086 96.7272 170.69 96.9701 171.124 97.4558C171.498 97.8676 171.685 98.5434 171.685 99.4796V103.545H170.143V99.8386C170.143 99.1839 170.051 98.7334 169.871 98.4835C169.695 98.2301 169.37 98.1034 168.901 98.1034C168.389 98.1034 168.029 98.2723 167.814 98.6067C167.606 98.9375 167.5 99.5183 167.5 100.342V103.545H165.958V96.9102H165.955Z" fill="white"/>
<path d="M173.308 100.18C173.308 99.2227 173.65 98.4062 174.338 97.7339C175.026 97.0617 175.862 96.7273 176.85 96.7273C177.842 96.7273 178.685 97.0652 179.377 97.741C180.061 98.4167 180.4 99.2474 180.4 100.233C180.4 101.229 180.058 102.06 179.369 102.732C178.678 103.401 177.828 103.731 176.822 103.731C175.823 103.731 174.991 103.39 174.317 102.711C173.646 102.042 173.308 101.197 173.308 100.18ZM174.878 100.205C174.878 100.866 175.054 101.391 175.411 101.778C175.774 102.169 176.254 102.362 176.85 102.362C177.45 102.362 177.93 102.169 178.29 101.785C178.65 101.398 178.83 100.884 178.83 100.24C178.83 99.5958 178.65 99.0784 178.29 98.6948C177.926 98.3041 177.446 98.1105 176.85 98.1105C176.264 98.1105 175.788 98.3041 175.425 98.6948C175.061 99.0855 174.878 99.5888 174.878 100.205Z" fill="white"/>
<path d="M182.266 102.781C182.266 102.528 182.358 102.306 182.545 102.119C182.732 101.933 182.954 101.841 183.215 101.841C183.477 101.841 183.699 101.933 183.886 102.119C184.073 102.306 184.165 102.528 184.165 102.788C184.165 103.052 184.073 103.277 183.886 103.464C183.702 103.647 183.48 103.735 183.215 103.735C182.947 103.735 182.721 103.643 182.538 103.464C182.358 103.281 182.266 103.052 182.266 102.781Z" fill="white"/>
<path d="M29.4797 31.1526H36.8823C40.88 31.1526 43.6427 33.0004 43.6427 37.2592C43.6427 41.6412 41.2752 43.5629 37.0552 43.5629H34.3172V49.7188H29.4797V31.1526ZM34.3172 39.6702H35.1322C36.8858 39.6702 38.6112 39.6702 38.6112 37.407C38.6112 35.07 37.0058 35.0453 35.1322 35.0453H34.3172V39.6702Z" fill="#25033B"/>
<path d="M92.8568 49.8138H86.7385L82.1022 42.5633H82.0528V49.8138H77.1378V30.959H84.4839C88.2204 30.959 91.0537 32.7329 91.0537 36.7594C91.0537 39.3604 89.6 41.6095 86.9185 42.0846L92.8568 49.8138ZM82.0528 39.4097H82.5291C84.1346 39.4097 85.9376 39.1105 85.9376 37.0585C85.9376 35.0066 84.131 34.7074 82.5291 34.7074H82.0528V39.4097Z" fill="#25033B"/>
<path d="M26.9464 79.3296H31.8296L40.7741 90.7896H40.8235V79.3296H45.7068V98.0718H40.8235L31.879 86.5871H31.8296V98.0718H26.9464V79.3296Z" fill="#25033B"/>
<path d="M81.8411 94.802L80.5427 98.0682H75.3418L82.5927 79.2627H87.9417L95.0408 98.0682H89.8153L88.5909 94.802H81.8411ZM85.2672 85.0772H85.2178L83.1925 91.0641H87.2678L85.2672 85.0772Z" fill="#25033B"/>
<path d="M130.318 46.4453L129.019 49.7115H123.818L131.069 30.906H136.418L143.517 49.7115H138.292L137.068 46.4453H130.318ZM133.744 36.7205H133.694L131.669 42.7074H135.744L133.744 36.7205Z" fill="#25033B"/>
</svg>
