<svg width="283" height="67" viewBox="0 0 283 67" fill="none" xmlns="http://www.w3.org/2000/svg">
<path d="M0 33.5C0 52.0018 14.9987 67 33.5 67C52.0018 67 67 52.0018 67 33.5C67 14.9987 52.0018 0 33.5 0C14.9987 0 0 14.9987 0 33.5Z" fill="#74E2C0"/>
<path d="M29.3807 31.9745H33.9013C36.231 31.9745 37.4481 30.897 37.4481 28.6711C37.4481 26.5848 36.1267 25.4718 33.9013 25.4718H29.3807V31.9745ZM23.9211 44.98V20.6385H34.9794C39.9518 20.6385 43.0119 24.1509 43.0119 28.6711C43.0119 33.3308 39.8825 36.8432 34.9794 36.8432H29.3807V44.98H23.9211Z" fill="#212121"/>
<path d="M40.0561 42.1638C40.0561 40.2515 41.1341 39.0692 43.186 39.0692C45.1681 39.0692 46.3154 40.2515 46.3154 42.1638C46.3154 44.1114 45.1681 45.2937 43.186 45.2937C41.1341 45.2937 40.0561 44.1114 40.0561 42.1638Z" fill="#212121"/>
<path d="M101.094 16.6752V23.4966H104.07C105.257 23.4966 106.174 23.2044 106.822 22.62C107.469 22.0356 107.793 21.1958 107.793 20.0991C107.793 18.9941 107.471 18.1473 106.828 17.5583C106.185 16.9697 105.27 16.6752 104.083 16.6752H101.094ZM96.9901 13.3047H105.171C107.191 13.3047 108.828 13.9282 110.083 15.1732C111.338 16.4193 111.965 18.0566 111.965 20.0856C111.965 22.097 111.317 23.7232 110.022 24.9641C108.726 26.2054 107.041 26.8257 104.967 26.8257H101.094V32.9138H96.9901V13.3047Z" fill="white"/>
<path d="M114.959 32.9138V17.9249H118.791V20.3169H119.036C119.235 19.5557 119.69 18.9262 120.401 18.4279C121.113 17.9295 121.939 17.6806 122.881 17.6806C123.561 17.6806 124.077 17.7439 124.431 17.8709V21.4717C124.014 21.3089 123.389 21.2274 122.555 21.2274C121.459 21.2274 120.578 21.5308 119.912 22.1375C119.247 22.7447 118.913 23.5692 118.913 24.6109V32.9138H114.959Z" fill="white"/>
<path d="M131.807 30.1689C132.722 30.1689 133.488 29.9102 134.104 29.3942C134.72 28.8782 135.028 28.2394 135.028 27.4782V26.3778L131.998 26.5676C130.313 26.6858 129.47 27.2879 129.47 28.3752C129.47 28.9275 129.685 29.3644 130.116 29.6864C130.546 30.0079 131.109 30.1689 131.807 30.1689ZM130.503 33.1448C129.053 33.1448 127.873 32.7325 126.963 31.9081C126.052 31.0841 125.597 29.9921 125.597 28.633C125.597 27.2837 126.098 26.2214 127.099 25.4468C128.1 24.6721 129.534 24.2301 131.4 24.1216L135.028 23.9039V22.6811C135.028 22.0558 134.811 21.5733 134.376 21.2341C133.941 20.894 133.316 20.7242 132.501 20.7242C131.033 20.7242 130.131 21.1862 129.796 22.1107H126.154C126.281 20.7242 126.936 19.6261 128.118 18.8152C129.3 18.0042 130.834 17.5984 132.718 17.5984C134.693 17.5984 136.221 18.0428 137.304 18.9305C138.387 19.8188 138.928 21.0685 138.928 22.6811V32.9135H135.096V30.9566H134.851C134.462 31.6457 133.882 32.1821 133.112 32.5669C132.342 32.9522 131.472 33.1448 130.503 33.1448Z" fill="white"/>
<path d="M142.425 32.9138V17.9249H146.257V20.3304H146.502C146.855 19.4696 147.41 18.7992 148.167 18.319C148.923 17.8393 149.845 17.5987 150.932 17.5987C152.59 17.5987 153.858 18.0859 154.737 19.0597C155.616 20.0335 156.055 21.4224 156.055 23.2249V32.9138H152.101V24.1624C152.101 22.0607 151.181 21.0097 149.342 21.0097C148.427 21.0097 147.705 21.3065 147.175 21.8998C146.644 22.4935 146.38 23.284 146.38 24.2713V32.9138H142.425Z" fill="white"/>
<path d="M164.878 30.1689C165.793 30.1689 166.559 29.9102 167.175 29.3942C167.791 28.8782 168.099 28.2394 168.099 27.4782V26.3778L165.068 26.5676C163.383 26.6858 162.541 27.2879 162.541 28.3752C162.541 28.9275 162.756 29.3644 163.186 29.6864C163.617 30.0079 164.18 30.1689 164.878 30.1689ZM163.573 33.1448C162.124 33.1448 160.944 32.7325 160.033 31.9081C159.123 31.0841 158.668 29.9921 158.668 28.633C158.668 27.2837 159.169 26.2214 160.169 25.4468C161.17 24.6721 162.604 24.2301 164.47 24.1216L168.099 23.9039V22.6811C168.099 22.0558 167.881 21.5733 167.446 21.2341C167.011 20.894 166.386 20.7242 165.571 20.7242C164.103 20.7242 163.202 21.1862 162.867 22.1107H159.225C159.352 20.7242 160.007 19.6261 161.189 18.8152C162.371 18.0042 163.904 17.5984 165.789 17.5984C167.764 17.5984 169.292 18.0428 170.375 18.9305C171.457 19.8188 171.999 21.0685 171.999 22.6811V32.9135H168.167V30.9566H167.922C167.532 31.6457 166.952 32.1821 166.183 32.5669C165.413 32.9522 164.543 33.1448 163.573 33.1448Z" fill="white"/>
<path d="M195.666 29.408V32.9138H182.675V13.3047H195.666V16.811H186.779V21.3907H195.164V24.6379H186.779V29.408H195.666Z" fill="white"/>
<path d="M198.836 22.3278C198.836 20.9055 199.409 19.7618 200.555 18.8969C201.701 18.0319 203.207 17.5987 205.074 17.5987C206.976 17.5987 208.469 17.984 209.551 18.7536C210.634 19.5241 211.23 20.6249 211.338 22.0561H207.683C207.583 21.5666 207.309 21.1842 206.861 20.9078C206.412 20.6314 205.825 20.4937 205.101 20.4937C204.385 20.4937 203.796 20.6407 203.334 20.9353C202.872 21.2298 202.641 21.6122 202.641 22.0836C202.641 22.4455 202.804 22.747 203.13 22.9871C203.457 23.2272 203.968 23.424 204.666 23.5785L207.479 24.1894C208.938 24.5072 210.004 24.9915 210.679 25.6439C211.354 26.2957 211.692 27.1793 211.692 28.2932C211.692 29.7797 211.084 30.9755 209.87 31.8809C208.657 32.7868 207.062 33.24 205.087 33.24C203.112 33.24 201.549 32.8506 200.399 32.0712C199.249 31.2923 198.605 30.1827 198.469 28.7417H202.329C202.646 29.8109 203.592 30.3455 205.169 30.3455C205.939 30.3455 206.564 30.1985 207.044 29.9039C207.524 29.6094 207.764 29.2219 207.764 28.7417C207.764 28.3704 207.615 28.0694 207.316 27.8386C207.017 27.6073 206.537 27.4194 205.876 27.2742L203.158 26.6628C201.699 26.346 200.614 25.8318 199.903 25.1204C199.192 24.4095 198.836 23.4785 198.836 22.3278Z" fill="white"/>
<path d="M215.594 14.3646H219.549V18.0747H222.661V21.1865H219.549V27.9265C219.549 28.5793 219.705 29.0595 220.017 29.367C220.33 29.675 220.821 29.829 221.492 29.829C221.936 29.829 222.326 29.8109 222.661 29.7746V32.7915C222.053 32.9092 221.392 32.9683 220.677 32.9683C218.856 32.9683 217.553 32.6514 216.77 32.0168C215.986 31.3831 215.594 30.332 215.594 28.8645V21.1865H213.257V18.0747H215.594V14.3646Z" fill="white"/>
<path d="M239.121 17.9249V32.9138H235.289V30.5083H235.045C234.302 32.3294 232.843 33.24 230.669 33.24C229.047 33.24 227.768 32.7482 226.83 31.7655C225.892 30.7829 225.424 29.4261 225.424 27.6957V17.9249H229.378V26.6768C229.378 28.7603 230.297 29.8016 232.137 29.8016C233.106 29.8016 233.853 29.5164 234.379 28.9459C234.904 28.375 235.167 27.5822 235.167 26.5674V17.9249H239.121Z" fill="white"/>
<path d="M251.9 22.1852C251.292 21.3928 250.464 20.9959 249.413 20.9959C248.362 20.9959 247.535 21.3881 246.933 22.1717C246.33 22.9552 246.029 24.036 246.029 25.4128C246.029 26.7989 246.328 27.8839 246.926 28.6674C247.524 29.4509 248.353 29.8427 249.413 29.8427C250.473 29.8427 251.304 29.4509 251.906 28.6674C252.509 27.8839 252.81 26.8035 252.81 25.4263C252.81 24.0584 252.506 22.978 251.9 22.1852ZM248.068 33.1448C246.183 33.1448 244.695 32.4515 243.603 31.0659C242.512 29.6794 241.966 27.7908 241.966 25.3988C241.966 23.0166 242.512 21.1341 243.603 19.7527C244.695 18.3713 246.183 17.6803 248.068 17.6803C249.082 17.6803 249.984 17.9134 250.772 18.3801C251.56 18.8468 252.149 19.4926 252.539 20.3166H252.769V12.204H256.724V32.914H252.892V30.5629H252.647C252.248 31.3693 251.646 32.0016 250.84 32.4585C250.033 32.9159 249.109 33.1448 248.068 33.1448Z" fill="white"/>
<path d="M260.438 17.9249H264.392V32.9138H260.438V17.9249ZM262.422 15.8321C261.715 15.8321 261.149 15.6469 260.723 15.2751C260.297 14.9039 260.084 14.4237 260.084 13.8346C260.084 13.2368 260.297 12.7547 260.723 12.3876C261.149 12.0205 261.715 11.8372 262.422 11.8372C263.128 11.8372 263.694 12.0205 264.12 12.3876C264.546 12.7547 264.759 13.2368 264.759 13.8346C264.759 14.4237 264.543 14.9039 264.113 15.2751C263.683 15.6469 263.119 15.8321 262.422 15.8321Z" fill="white"/>
<path d="M274.642 30.0058C275.693 30.0058 276.509 29.6052 277.088 28.8031C277.668 28.001 277.958 26.8713 277.958 25.4126C277.958 23.9721 277.666 22.8489 277.082 22.0426C276.497 21.2363 275.684 20.8329 274.642 20.8329C273.591 20.8329 272.776 21.2363 272.196 22.0426C271.617 22.8489 271.327 23.9721 271.327 25.4126C271.327 26.8713 271.614 28.001 272.19 28.8031C272.765 29.6052 273.582 30.0058 274.642 30.0058ZM280.058 31.1607C278.748 32.5472 276.944 33.24 274.642 33.24C272.341 33.24 270.536 32.5472 269.227 31.1607C267.918 29.7746 267.264 27.8586 267.264 25.4126C267.264 22.9848 267.923 21.0758 269.241 19.6846C270.559 18.2943 272.36 17.5987 274.642 17.5987C276.926 17.5987 278.726 18.2943 280.044 19.6846C281.362 21.0758 282.021 22.9848 282.021 25.4126C282.021 27.8586 281.367 29.7746 280.058 31.1607Z" fill="white"/>
<path d="M95.9525 52.1583L100.022 50.091V49.9905L95.9525 47.9229V46.5289L101.304 49.5001V50.581L95.9525 53.5522V52.1583Z" fill="white"/>
<path d="M108.339 46.2339V52.3476H109.946C110.84 52.3476 111.532 52.0806 112.022 51.5469C112.512 51.0132 112.757 50.2581 112.757 49.2819C112.757 48.3207 112.51 47.573 112.016 47.0374C111.522 46.5014 110.832 46.2339 109.946 46.2339H108.339ZM107.016 45.0288H110.094C111.357 45.0288 112.342 45.4001 113.047 46.1427C113.752 46.8844 114.104 47.9252 114.104 49.2642C114.104 50.6266 113.754 51.6818 113.053 52.43C112.352 53.1786 111.365 53.5522 110.094 53.5522H107.016V45.0288Z" fill="white"/>
<path d="M115.764 47.1195H117.028V53.552H115.764V47.1195ZM116.984 45.7698C116.828 45.9177 116.632 45.9917 116.396 45.9917C116.16 45.9917 115.964 45.9177 115.808 45.7698C115.653 45.6227 115.575 45.438 115.575 45.2179C115.575 44.9974 115.653 44.8122 115.808 44.6624C115.964 44.513 116.16 44.4381 116.396 44.4381C116.632 44.4381 116.828 44.513 116.984 44.6624C117.14 44.8122 117.217 44.9974 117.217 45.2179C117.217 45.438 117.14 45.6227 116.984 45.7698Z" fill="white"/>
<path d="M118.747 48.9391C118.747 48.3719 118.981 47.9061 119.45 47.5418C119.919 47.178 120.517 46.9956 121.246 46.9956C121.97 46.9956 122.555 47.1552 123 47.4744C123.445 47.7931 123.699 48.236 123.762 48.8032H122.545C122.486 48.5626 122.343 48.3737 122.117 48.236C121.89 48.0983 121.6 48.0294 121.246 48.0294C120.887 48.0294 120.59 48.1071 120.354 48.2625C120.117 48.4184 119.999 48.6199 119.999 48.8683C119.999 49.0614 120.082 49.2205 120.248 49.3466C120.413 49.4723 120.671 49.5751 121.021 49.6537L122.091 49.9017C122.708 50.0436 123.163 50.2544 123.452 50.534C123.741 50.8132 123.886 51.1877 123.886 51.6563C123.886 52.2546 123.636 52.7413 123.136 53.1154C122.636 53.489 121.998 53.6765 121.222 53.6765C120.458 53.6765 119.841 53.5141 119.37 53.1889C118.9 52.8646 118.637 52.4165 118.582 51.8452H119.852C119.934 52.0974 120.094 52.2942 120.33 52.4361C120.566 52.5775 120.873 52.6487 121.252 52.6487C121.649 52.6487 121.974 52.5678 122.226 52.4063C122.478 52.2449 122.604 52.0359 122.604 51.78C122.604 51.4064 122.289 51.144 121.659 50.9947L120.537 50.7346C119.922 50.5889 119.471 50.3726 119.181 50.085C118.892 49.7975 118.747 49.4155 118.747 48.9391Z" fill="white"/>
<path d="M129.187 48.5289C128.902 48.2274 128.525 48.0767 128.056 48.0767C127.588 48.0767 127.202 48.2283 126.899 48.5317C126.595 48.8346 126.426 49.2385 126.391 49.7423H129.639C129.623 49.2347 129.473 48.8295 129.187 48.5289ZM129.633 51.8156H130.856C130.71 52.3949 130.393 52.8495 129.902 53.1803C129.412 53.5111 128.8 53.6763 128.068 53.6763C127.147 53.6763 126.421 53.3804 125.891 52.7871C125.362 52.1948 125.097 51.3848 125.097 50.357C125.097 49.3292 125.365 48.5122 125.9 47.9054C126.436 47.2987 127.156 46.9958 128.062 46.9958C128.956 46.9958 129.658 47.2834 130.168 47.8584C130.678 48.4331 130.933 49.2268 130.933 50.2388V50.6817H126.391V50.7525C126.41 51.3196 126.574 51.7686 126.881 52.0994C127.188 52.4303 127.596 52.5954 128.103 52.5954C128.879 52.5954 129.389 52.3358 129.633 51.8156Z" fill="white"/>
<path d="M134.418 45.3301C134.225 45.3301 134.084 45.4008 133.995 45.5427C133.907 45.6846 133.863 45.9089 133.863 46.216H132.93C132.93 45.6651 133.057 45.2277 133.313 44.9048C133.569 44.5819 133.918 44.4205 134.359 44.4205C134.532 44.4205 134.692 44.4507 134.84 44.5121C134.988 44.5731 135.113 44.6475 135.215 44.7369C135.318 44.8248 135.412 44.9127 135.499 44.9993C135.585 45.0863 135.674 45.1598 135.765 45.2212C135.855 45.2817 135.942 45.3124 136.025 45.3124C136.218 45.3124 136.358 45.2431 136.447 45.1058C136.535 44.9681 136.58 44.7452 136.58 44.4382H137.513C137.513 44.9895 137.385 45.4246 137.129 45.7437C136.873 46.0624 136.525 46.222 136.084 46.222C135.911 46.222 135.75 46.1918 135.602 46.1308C135.455 46.0694 135.329 45.9959 135.227 45.9089C135.125 45.8224 135.03 45.7344 134.944 45.6465C134.857 45.5572 134.768 45.4827 134.678 45.4218C134.587 45.3603 134.501 45.3301 134.418 45.3301ZM132.457 53.5525V47.12H133.68V48.1418H133.774C134.109 47.3778 134.749 46.9958 135.694 46.9958C136.411 46.9958 136.961 47.2024 137.345 47.616C137.729 48.0296 137.921 48.6201 137.921 49.3883V53.5525H136.651V49.707C136.651 48.675 136.188 48.1595 135.262 48.1595C134.794 48.1595 134.421 48.306 134.143 48.5996C133.866 48.8927 133.727 49.2896 133.727 49.7898V53.5525H132.457Z" fill="white"/>
<path d="M142.422 52.5482C142.969 52.5482 143.393 52.3542 143.695 51.9666C143.996 51.5786 144.146 51.0342 144.146 50.333C144.146 49.636 143.996 49.0935 143.695 48.706C143.393 48.3179 142.969 48.1239 142.422 48.1239C141.87 48.1239 141.445 48.317 141.146 48.7027C140.847 49.0884 140.697 49.6319 140.697 50.333C140.697 51.0379 140.847 51.5837 141.146 51.9694C141.445 52.3551 141.87 52.5482 142.422 52.5482ZM142.422 53.6765C141.477 53.6765 140.735 53.3792 140.195 52.7846C139.655 52.1895 139.386 51.3729 139.386 50.333C139.386 49.2978 139.657 48.4826 140.198 47.8875C140.739 47.2929 141.48 46.9956 142.422 46.9956C143.359 46.9956 144.099 47.2929 144.64 47.8875C145.181 48.4826 145.452 49.2978 145.452 50.333C145.452 51.3729 145.182 52.1895 144.642 52.7846C144.103 53.3792 143.363 53.6765 142.422 53.6765Z" fill="white"/>
<path d="M153.013 48.307C153.485 48.0706 153.821 47.8436 154.02 47.6244C154.219 47.4062 154.318 47.155 154.318 46.8716C154.318 46.5687 154.218 46.3221 154.017 46.1332C153.816 45.9443 153.554 45.8499 153.231 45.8499C152.916 45.8499 152.656 45.9462 152.452 46.1393C152.247 46.3324 152.144 46.578 152.144 46.8777C152.144 47.0945 152.209 47.3085 152.339 47.5216C152.469 47.7342 152.693 47.9957 153.013 48.307ZM152.41 49.6893C151.662 50.0792 151.288 50.5813 151.288 51.1954C151.288 51.6286 151.451 51.9785 151.778 52.2437C152.105 52.5099 152.534 52.6425 153.066 52.6425C153.428 52.6425 153.779 52.5796 154.117 52.4536C154.456 52.3279 154.73 52.1581 154.938 51.9455L152.688 49.5591C152.593 49.5986 152.501 49.6419 152.41 49.6893ZM156.403 53.5521L155.665 52.7727C155.314 53.0677 154.902 53.2985 154.428 53.4637C153.953 53.6289 153.458 53.7117 152.942 53.7117C152.071 53.7117 151.367 53.4893 150.83 53.0445C150.293 52.5997 150.024 52.0167 150.024 51.2959C150.024 50.7995 150.159 50.3626 150.429 49.9843C150.698 49.6065 151.114 49.2678 151.678 48.9686C151.694 48.9607 151.748 48.9305 151.843 48.877C151.937 48.8239 151.999 48.7914 152.026 48.7797C151.636 48.374 151.361 48.0218 151.199 47.7221C151.038 47.423 150.957 47.1178 150.957 46.8065C150.957 46.2472 151.172 45.7829 151.604 45.4125C152.035 45.0421 152.576 44.8574 153.225 44.8574C153.879 44.8574 154.418 45.0389 154.841 45.4009C155.264 45.7629 155.476 46.2277 155.476 46.7949C155.476 47.2359 155.333 47.6319 155.048 47.9822C154.762 48.3326 154.302 48.675 153.668 49.01L155.623 51.0419C155.868 50.585 155.99 49.9294 155.99 49.0747V48.803H157.142V49.1222C157.142 50.3114 156.905 51.2466 156.433 51.9278L157.951 53.5521H156.403Z" fill="white"/>
<path d="M165.051 48.1535C164.515 48.1535 164.095 48.3475 163.79 48.7351C163.485 49.1232 163.332 49.6559 163.332 50.3334C163.332 51.0141 163.485 51.5491 163.79 51.9367C164.095 52.3247 164.515 52.5188 165.051 52.5188C165.586 52.5188 166.009 52.3238 166.318 51.9339C166.627 51.544 166.782 51.0127 166.782 50.3389C166.782 49.6699 166.626 49.1381 166.315 48.7444C166.004 48.3503 165.583 48.1535 165.051 48.1535ZM164.691 53.6587C163.871 53.6587 163.222 53.3591 162.741 52.7607C162.261 52.1624 162.021 51.3532 162.021 50.3334C162.021 49.3172 162.262 48.5099 162.744 47.9111C163.227 47.3128 163.876 47.0136 164.691 47.0136C165.131 47.0136 165.527 47.1132 165.878 47.3118C166.229 47.5105 166.49 47.7874 166.664 48.1419H166.758V44.6095H168.028V53.5526H166.811V52.5364H166.711C166.518 52.8868 166.243 53.1618 165.887 53.3604C165.53 53.5591 165.131 53.6587 164.691 53.6587Z" fill="white"/>
<path d="M173.702 48.5289C173.416 48.2274 173.039 48.0767 172.57 48.0767C172.102 48.0767 171.716 48.2283 171.413 48.5317C171.109 48.8346 170.94 49.2385 170.905 49.7423H174.153C174.137 49.2347 173.987 48.8295 173.702 48.5289ZM174.147 51.8156H175.37C175.224 52.3949 174.907 52.8495 174.416 53.1803C173.926 53.5111 173.314 53.6763 172.582 53.6763C171.661 53.6763 170.935 53.3804 170.405 52.7871C169.876 52.1948 169.611 51.3848 169.611 50.357C169.611 49.3292 169.879 48.5122 170.414 47.9054C170.95 47.2987 171.671 46.9958 172.576 46.9958C173.47 46.9958 174.172 47.2834 174.682 47.8584C175.192 48.4331 175.447 49.2268 175.447 50.2388V50.6817H170.905V50.7525C170.924 51.3196 171.088 51.7686 171.395 52.0994C171.702 52.4303 172.11 52.5954 172.617 52.5954C173.393 52.5954 173.903 52.3358 174.147 51.8156Z" fill="white"/>
<path d="M176.823 48.9391C176.823 48.3719 177.057 47.9061 177.526 47.5418C177.995 47.178 178.593 46.9956 179.322 46.9956C180.046 46.9956 180.631 47.1552 181.076 47.4744C181.521 47.7931 181.775 48.236 181.838 48.8032H180.621C180.562 48.5626 180.419 48.3737 180.193 48.236C179.967 48.0983 179.676 48.0294 179.322 48.0294C178.963 48.0294 178.666 48.1071 178.43 48.2625C178.193 48.4184 178.075 48.6199 178.075 48.8683C178.075 49.0614 178.158 49.2205 178.324 49.3466C178.489 49.4723 178.747 49.5751 179.097 49.6537L180.167 49.9017C180.785 50.0436 181.239 50.2544 181.528 50.534C181.817 50.8132 181.962 51.1877 181.962 51.6563C181.962 52.2546 181.712 52.7413 181.212 53.1154C180.712 53.489 180.074 53.6765 179.298 53.6765C178.534 53.6765 177.917 53.5141 177.446 53.1889C176.976 52.8646 176.713 52.4165 176.658 51.8452H177.928C178.011 52.0974 178.17 52.2942 178.406 52.4361C178.642 52.5775 178.949 52.6487 179.328 52.6487C179.726 52.6487 180.05 52.5678 180.303 52.4063C180.554 52.2449 180.68 52.0359 180.68 51.78C180.68 51.4064 180.365 51.144 179.735 50.9947L178.613 50.7346C177.998 50.5889 177.547 50.3726 177.257 50.085C176.968 49.7975 176.823 49.4155 176.823 48.9391Z" fill="white"/>
<path d="M185.595 52.5895C186.071 52.5895 186.468 52.4555 186.785 52.1879C187.102 51.9204 187.261 51.5854 187.261 51.1839V50.646L185.689 50.7465C185.248 50.7744 184.924 50.8647 184.715 51.0182C184.506 51.1718 184.402 51.3905 184.402 51.6738C184.402 51.9576 184.512 52.181 184.732 52.3447C184.953 52.5076 185.24 52.5895 185.595 52.5895ZM185.27 53.6587C184.64 53.6587 184.125 53.4824 183.725 53.1297C183.326 52.7775 183.126 52.3117 183.126 51.7329C183.126 51.1583 183.333 50.706 183.746 50.3771C184.16 50.0486 184.75 49.8606 185.518 49.8132L187.261 49.7127V49.1576C187.261 48.8151 187.148 48.5523 186.924 48.3689C186.699 48.1861 186.372 48.0944 185.943 48.0944C185.589 48.0944 185.294 48.1563 185.06 48.2805C184.826 48.4043 184.674 48.5806 184.602 48.8091H183.374C183.437 48.2577 183.708 47.8176 184.186 47.4891C184.664 47.1602 185.27 46.9959 186.002 46.9959C186.806 46.9959 187.427 47.1857 187.866 47.5654C188.305 47.946 188.525 48.4764 188.525 49.1576V53.5521H187.302V52.6486H187.202C187.009 52.9715 186.744 53.2204 186.407 53.3958C186.07 53.5708 185.692 53.6587 185.27 53.6587Z" fill="white"/>
<path d="M190.332 53.5525V47.12H191.555V48.1064H191.649C191.74 47.7872 191.948 47.5257 192.272 47.3206C192.598 47.1158 192.969 47.0135 193.386 47.0135C193.626 47.0135 193.815 47.0312 193.953 47.067V48.319C193.799 48.2679 193.563 48.2423 193.244 48.2423C192.76 48.2423 192.365 48.3823 192.06 48.6615C191.755 48.9411 191.602 49.3054 191.602 49.7544V53.5525H190.332Z" fill="white"/>
<path d="M195.297 53.5525V47.12H196.519V48.1064H196.614C196.705 47.7872 196.912 47.5257 197.237 47.3206C197.562 47.1158 197.933 47.0135 198.35 47.0135C198.591 47.0135 198.78 47.0312 198.917 47.067V48.319C198.764 48.2679 198.528 48.2423 198.209 48.2423C197.724 48.2423 197.329 48.3823 197.024 48.6615C196.719 48.9411 196.566 49.3054 196.566 49.7544V53.5525H195.297Z" fill="white"/>
<path d="M202.7 52.5482C203.247 52.5482 203.672 52.3542 203.973 51.9666C204.274 51.5786 204.425 51.0342 204.425 50.333C204.425 49.636 204.274 49.0935 203.973 48.706C203.672 48.3179 203.247 48.1239 202.7 48.1239C202.149 48.1239 201.724 48.317 201.424 48.7027C201.125 49.0884 200.975 49.6319 200.975 50.333C200.975 51.0379 201.125 51.5837 201.424 51.9694C201.724 52.3551 202.149 52.5482 202.7 52.5482ZM202.7 53.6765C201.755 53.6765 201.013 53.3792 200.473 52.7846C199.934 52.1895 199.664 51.3729 199.664 50.333C199.664 49.2978 199.935 48.4826 200.476 47.8875C201.018 47.2929 201.759 46.9956 202.7 46.9956C203.637 46.9956 204.377 47.2929 204.918 47.8875C205.46 48.4826 205.731 49.2978 205.731 50.333C205.731 51.3729 205.461 52.1895 204.921 52.7846C204.382 53.3792 203.641 53.6765 202.7 53.6765Z" fill="white"/>
<path d="M207.313 44.6096H208.583V53.5527H207.313V44.6096Z" fill="white"/>
<path d="M210.545 44.6096H211.814V53.5527H210.545V44.6096Z" fill="white"/>
<path d="M216.434 52.5482C216.981 52.5482 217.405 52.3542 217.707 51.9666C218.008 51.5786 218.158 51.0342 218.158 50.333C218.158 49.636 218.008 49.0935 217.707 48.706C217.405 48.3179 216.981 48.1239 216.434 48.1239C215.882 48.1239 215.457 48.317 215.158 48.7027C214.859 49.0884 214.709 49.6319 214.709 50.333C214.709 51.0379 214.859 51.5837 215.158 51.9694C215.457 52.3551 215.882 52.5482 216.434 52.5482ZM216.434 53.6765C215.489 53.6765 214.746 53.3792 214.207 52.7846C213.667 52.1895 213.398 51.3729 213.398 50.333C213.398 49.2978 213.668 48.4826 214.21 47.8875C214.751 47.2929 215.492 46.9956 216.434 46.9956C217.371 46.9956 218.11 47.2929 218.652 47.8875C219.193 48.4826 219.464 49.2978 219.464 50.333C219.464 51.3729 219.194 52.1895 218.654 52.7846C218.115 53.3792 217.375 53.6765 216.434 53.6765Z" fill="white"/>
</svg>
