<svg width="104" height="67" viewBox="0 0 104 67" fill="none" xmlns="http://www.w3.org/2000/svg">
<path d="M29.7268 10.1249H7.99391V31.9964H29.7268V10.1249Z" fill="#74E2C0"/>
<path d="M54.8721 10.1249H33.1393V31.9964H54.8721V10.1249Z" fill="#74E2C0"/>
<path d="M29.7268 35.0476H7.99391V56.9191H29.7268V35.0476Z" fill="#74E2C0"/>
<path d="M54.8721 35.0476H33.1393V56.9191H54.8721V35.0476Z" fill="#74E2C0"/>
<path d="M79.89 10.1249H58.1571V31.9964H79.89V10.1249Z" fill="#74E2C0"/>
<path d="M65.2096 40.4976H63.0281V41.8134H65.1459V42.5904H63.0281V44.4193H65.2096V45.1963H62.2069V39.7206H65.2096V40.4976Z" fill="white"/>
<path d="M68.1304 42.3302L67.4748 42.682C67.371 42.4694 67.2436 42.3631 67.0906 42.3631C67.0178 42.3631 66.9559 42.387 66.9031 42.4364C66.8521 42.4841 66.8248 42.5464 66.8248 42.6234C66.8248 42.7553 66.9777 42.8872 67.2836 43.0174C67.7043 43.1988 67.9865 43.3674 68.1322 43.5213C68.2779 43.6752 68.3507 43.8823 68.3507 44.1425C68.3507 44.4761 68.2287 44.7546 67.9847 44.98C67.748 45.1926 67.4603 45.2989 67.1252 45.2989C66.5498 45.2989 66.1419 45.0167 65.9016 44.4504L66.5789 44.1352C66.6736 44.3001 66.7446 44.4064 66.7938 44.4504C66.8903 44.5402 67.005 44.586 67.1398 44.586C67.4075 44.586 67.5422 44.4632 67.5422 44.2177C67.5422 44.0766 67.4384 43.9428 67.2327 43.82C67.1525 43.7797 67.0724 43.7412 66.9923 43.7027C66.9122 43.6642 66.832 43.6258 66.7483 43.5854C66.5188 43.4718 66.3568 43.3582 66.2621 43.2446C66.1419 43.0998 66.0818 42.9147 66.0818 42.6875C66.0818 42.387 66.1838 42.1396 66.3877 41.9435C66.5971 41.7474 66.8503 41.6484 67.1489 41.6484C67.5896 41.6466 67.9155 41.8739 68.1304 42.3302Z" fill="white"/>
<path d="M69.8803 42.4859V45.1944H69.0882V42.4859H68.7495V41.7419H69.0882V40.4756H69.8803V41.7419H70.4976V42.4859H69.8803Z" fill="white"/>
<path d="M71.8305 41.7419V43.7248C71.8305 44.2965 72.0545 44.5824 72.5043 44.5824C72.954 44.5824 73.178 44.2965 73.178 43.7248V41.7419H73.9701V43.7413C73.9701 44.018 73.9355 44.2562 73.8682 44.4578C73.8026 44.6374 73.6879 44.7986 73.5258 44.9434C73.2581 45.178 72.9176 45.2953 72.5043 45.2953C72.0927 45.2953 71.754 45.178 71.4864 44.9434C71.3225 44.7986 71.2059 44.6374 71.1368 44.4578C71.0712 44.2965 71.0384 44.0583 71.0384 43.7413V41.7419H71.8305Z" fill="white"/>
<path d="M77.4991 39.2057H78.2948V45.1945H77.4991V44.8335C77.1859 45.1413 76.8326 45.2953 76.4393 45.2953C75.9695 45.2953 75.5798 45.123 75.2685 44.7767C74.9607 44.4248 74.8078 43.985 74.8078 43.4572C74.8078 42.9423 74.9607 42.5116 75.2685 42.1671C75.5744 41.8189 75.9586 41.6466 76.4211 41.6466C76.8235 41.6466 77.1822 41.8116 77.4991 42.1433V39.2057ZM75.6181 43.459C75.6181 43.7907 75.7055 44.0601 75.8821 44.2672C76.0624 44.4779 76.29 44.5824 76.565 44.5824C76.8581 44.5824 77.0967 44.4816 77.2769 44.2782C77.4572 44.0675 77.5483 43.7999 77.5483 43.4774C77.5483 43.153 77.4572 42.8873 77.2769 42.6765C77.0967 42.4713 76.8618 42.3687 76.5722 42.3687C76.2991 42.3687 76.0715 42.4731 75.8894 42.6802C75.7091 42.8891 75.6181 43.1493 75.6181 43.459Z" fill="white"/>
<path d="M79.1762 40.3052C79.1762 40.166 79.2272 40.045 79.3273 39.9442C79.4275 39.8434 79.5495 39.7921 79.6897 39.7921C79.8335 39.7921 79.9555 39.8434 80.0557 39.9442C80.1558 40.0432 80.2068 40.166 80.2068 40.3089C80.2068 40.4537 80.1558 40.5765 80.0557 40.6772C79.9574 40.778 79.8354 40.8293 79.6933 40.8293C79.5495 40.8293 79.4275 40.778 79.3273 40.6772C79.2272 40.5765 79.1762 40.4518 79.1762 40.3052ZM80.0885 41.742V45.1963H79.2964V41.742H80.0885Z" fill="white"/>
<path d="M80.9315 43.4443C80.9315 42.9459 81.1082 42.5207 81.4633 42.1707C81.8183 41.8207 82.2499 41.6466 82.7598 41.6466C83.2715 41.6466 83.7067 41.8225 84.0636 42.1744C84.415 42.5262 84.5917 42.9587 84.5917 43.4718C84.5917 43.9904 84.415 44.4229 84.0599 44.7729C83.703 45.1211 83.2642 45.2934 82.7452 45.2934C82.2317 45.2934 81.8001 45.1156 81.4523 44.7619C81.1045 44.4138 80.9315 43.974 80.9315 43.4443ZM81.7419 43.459C81.7419 43.8035 81.8329 44.0766 82.0168 44.2782C82.2044 44.4816 82.452 44.5824 82.7598 44.5824C83.0693 44.5824 83.317 44.4816 83.5027 44.2818C83.6885 44.0802 83.7813 43.8127 83.7813 43.4773C83.7813 43.142 83.6885 42.8726 83.5027 42.6728C83.3152 42.4694 83.0675 42.3686 82.7598 42.3686C82.4575 42.3686 82.2117 42.4694 82.0241 42.6728C81.8366 42.8744 81.7419 43.1365 81.7419 43.459Z" fill="white"/>
<path d="M64.585 47.9213H65.3808V53.91H64.585V53.549C64.2718 53.8569 63.9185 54.0108 63.5252 54.0108C63.0554 54.0108 62.6657 53.8386 62.3544 53.4922C62.0466 53.1404 61.8918 52.7006 61.8918 52.1728C61.8918 51.6578 62.0448 51.2272 62.3544 50.8827C62.6603 50.5345 63.0445 50.3622 63.507 50.3622C63.9094 50.3622 64.2682 50.5272 64.585 50.8588V47.9213ZM62.704 52.1728C62.704 52.5045 62.7914 52.7739 62.968 52.9809C63.1483 53.1917 63.3777 53.2961 63.6509 53.2961C63.944 53.2961 64.1826 53.1954 64.3629 52.9919C64.5431 52.7812 64.6342 52.5136 64.6342 52.1911C64.6342 51.8667 64.5431 51.601 64.3629 51.3903C64.1826 51.185 63.9477 51.0824 63.6582 51.0824C63.385 51.0824 63.1574 51.1869 62.9753 51.394C62.7932 51.6029 62.704 51.8631 62.704 52.1728Z" fill="white"/>
<path d="M69.507 52.3726H67.0469C67.0688 52.6567 67.1598 52.8821 67.3219 53.0507C67.4839 53.2156 67.6915 53.2981 67.9446 53.2981C68.1413 53.2981 68.3052 53.2504 68.4345 53.1569C68.5619 53.0617 68.7058 52.8876 68.8679 52.6328L69.538 53.0085C69.4342 53.1863 69.3249 53.3384 69.2102 53.4648C69.0955 53.5913 68.9716 53.6957 68.8405 53.7764C68.7094 53.8588 68.5674 53.9175 68.4144 53.9559C68.2615 53.9944 68.0958 54.0127 67.9173 54.0127C67.4056 54.0127 66.9941 53.8478 66.6846 53.5161C66.375 53.1826 66.2202 52.741 66.2202 52.1894C66.2202 51.6433 66.3714 51.2016 66.6718 50.8626C66.9741 50.5291 67.3765 50.3623 67.8773 50.3623C68.3817 50.3623 68.7823 50.5236 69.0754 50.8479C69.3668 51.1686 69.5125 51.6158 69.5125 52.1857L69.507 52.3726ZM68.693 51.7202C68.582 51.2951 68.3161 51.0825 67.8937 51.0825C67.7971 51.0825 67.7061 51.0972 67.6223 51.1265C67.5386 51.1558 67.4603 51.1979 67.3911 51.2548C67.3219 51.3097 67.2618 51.3775 67.2126 51.4545C67.1635 51.5333 67.1252 51.6213 67.0997 51.7202H68.693Z" fill="white"/>
<path d="M75.1319 47.9213H75.9276V53.91H75.1319V53.549C74.8187 53.8569 74.4654 54.0108 74.0721 54.0108C73.6023 54.0108 73.2126 53.8386 72.9012 53.4922C72.5935 53.1404 72.4387 52.7006 72.4387 52.1728C72.4387 51.6578 72.5917 51.2272 72.9012 50.8827C73.2072 50.5345 73.5914 50.3622 74.0539 50.3622C74.4563 50.3622 74.815 50.5272 75.1319 50.8588V47.9213ZM73.2509 52.1728C73.2509 52.5045 73.3383 52.7739 73.5149 52.9809C73.6952 53.1917 73.9246 53.2961 74.1977 53.2961C74.4909 53.2961 74.7295 53.1954 74.9097 52.9919C75.09 52.7812 75.1811 52.5136 75.1811 52.1911C75.1811 51.8667 75.09 51.601 74.9097 51.3903C74.7295 51.185 74.4946 51.0824 74.205 51.0824C73.9319 51.0824 73.7043 51.1869 73.5222 51.394C73.3401 51.6029 73.2509 51.8631 73.2509 52.1728Z" fill="white"/>
<path d="M76.8091 49.0208C76.8091 48.8815 76.8601 48.7606 76.9602 48.6598C77.0604 48.559 77.1824 48.5077 77.3226 48.5077C77.4664 48.5077 77.5884 48.559 77.6886 48.6598C77.7888 48.7587 77.8397 48.8815 77.8397 49.0245C77.8397 49.1692 77.7888 49.292 77.6886 49.3928C77.5903 49.4936 77.4683 49.5449 77.3262 49.5449C77.1824 49.5449 77.0604 49.4936 76.9602 49.3928C76.8601 49.292 76.8091 49.1674 76.8091 49.0208ZM77.7214 50.4575V53.9119H76.9293V50.4575H77.7214Z" fill="white"/>
<path d="M80.7204 51.0459L80.0648 51.3977C79.961 51.1851 79.8336 51.0788 79.6806 51.0788C79.6078 51.0788 79.5458 51.1027 79.493 51.1521C79.4421 51.1998 79.4166 51.2621 79.4166 51.3391C79.4166 51.471 79.5695 51.603 79.8736 51.7331C80.2943 51.9145 80.5765 52.0831 80.7222 52.237C80.8678 52.391 80.9407 52.598 80.9407 52.8583C80.9407 53.1918 80.8187 53.4703 80.5747 53.6957C80.338 53.9083 80.0502 54.0146 79.7152 54.0146C79.1398 54.0146 78.7319 53.7324 78.4933 53.1661L79.1707 52.8509C79.2654 53.0159 79.3364 53.1221 79.3856 53.1661C79.4821 53.2559 79.5968 53.3017 79.7316 53.3017C79.9993 53.3017 80.134 53.179 80.134 52.9334C80.134 52.7923 80.0302 52.6585 79.8244 52.5357C79.7443 52.4954 79.6642 52.4569 79.5841 52.4184C79.504 52.38 79.4238 52.3415 79.3401 52.3012C79.1106 52.1875 78.9468 52.0739 78.8539 51.9603C78.7337 51.8155 78.6736 51.6304 78.6736 51.4032C78.6736 51.1027 78.7756 50.8553 78.9795 50.6592C79.1889 50.4631 79.4421 50.3641 79.7407 50.3641C80.1795 50.3623 80.5055 50.5896 80.7204 51.0459Z" fill="white"/>
<path d="M84.7792 52.3726H82.3191C82.341 52.6567 82.432 52.8821 82.5941 53.0507C82.7562 53.2156 82.9637 53.2981 83.2169 53.2981C83.4135 53.2981 83.5774 53.2504 83.7067 53.1569C83.8342 53.0617 83.978 52.8876 84.1401 52.6328L84.8102 53.0085C84.7064 53.1863 84.5971 53.3384 84.4824 53.4648C84.3677 53.5913 84.2439 53.6957 84.1128 53.7764C83.9817 53.8588 83.8396 53.9175 83.6867 53.9559C83.5337 53.9944 83.368 54.0127 83.1895 54.0127C82.6779 54.0127 82.2663 53.8478 81.9568 53.5161C81.6472 53.1826 81.4924 52.741 81.4924 52.1894C81.4924 51.6433 81.6436 51.2016 81.944 50.8626C82.2463 50.5291 82.6487 50.3623 83.1495 50.3623C83.6539 50.3623 84.0545 50.5236 84.3477 50.8479C84.639 51.1686 84.7847 51.6158 84.7847 52.1857L84.7792 52.3726ZM83.9653 51.7202C83.8542 51.2951 83.5883 51.0825 83.1659 51.0825C83.0694 51.0825 82.9783 51.0972 82.8946 51.1265C82.8108 51.1558 82.7325 51.1979 82.6633 51.2548C82.5941 51.3097 82.534 51.3775 82.4848 51.4545C82.4357 51.5333 82.3974 51.6213 82.3719 51.7202H83.9653Z" fill="white"/>
<path d="M86.0903 49.8693L85.6277 49.4753L85.7297 49.3305C85.7953 49.2352 85.859 49.1564 85.9191 49.0904C85.981 49.0263 86.0429 48.9732 86.1067 48.931C86.1704 48.8889 86.2359 48.8595 86.3033 48.843C86.3707 48.8247 86.4454 48.8156 86.5255 48.8156C86.7094 48.8156 86.9206 48.8779 87.1628 49.0007C87.4068 49.1253 87.5652 49.1894 87.6344 49.1894C87.7656 49.1894 87.9112 49.0611 88.0715 48.8064L88.5194 49.1821C88.2936 49.6365 87.9877 49.8638 87.6035 49.8638C87.4724 49.8638 87.2575 49.7978 86.9589 49.6659C86.7458 49.5577 86.5856 49.5028 86.48 49.5028C86.3525 49.4991 86.2214 49.6219 86.0903 49.8693ZM85.646 50.4575H86.4417V50.7764C86.7185 50.4997 87.0317 50.3622 87.3795 50.3622C87.7783 50.3622 88.0897 50.4887 88.3137 50.7416C88.5067 50.956 88.6032 51.3078 88.6032 51.7953V53.9119H87.8074V51.9822C87.8074 51.6414 87.7601 51.4068 87.6672 51.2767C87.5762 51.1447 87.4086 51.0788 87.1665 51.0788C86.9024 51.0788 86.7167 51.1667 86.6056 51.3408C86.4982 51.5131 86.4435 51.8155 86.4435 52.2443V53.9119H85.6478V50.4575H85.646Z" fill="white"/>
<path d="M89.4409 52.16C89.4409 51.6616 89.6176 51.2364 89.9726 50.8864C90.3277 50.5364 90.7593 50.3623 91.2691 50.3623C91.7808 50.3623 92.216 50.5382 92.5729 50.8901C92.9262 51.2419 93.101 51.6744 93.101 52.1875C93.101 52.7061 92.9244 53.1386 92.5693 53.4886C92.2124 53.8368 91.7735 54.0091 91.2546 54.0091C90.7393 54.0091 90.3095 53.8313 89.9617 53.4776C89.6157 53.1295 89.4409 52.6896 89.4409 52.16ZM90.2512 52.1729C90.2512 52.5174 90.3423 52.7904 90.5262 52.992C90.7138 53.1954 90.9614 53.2962 91.2691 53.2962C91.5787 53.2962 91.8263 53.1954 92.0121 52.9957C92.1978 52.7941 92.2907 52.5265 92.2907 52.1912C92.2907 51.8558 92.1978 51.5865 92.0121 51.3867C91.8245 51.1833 91.5769 51.0825 91.2691 51.0825C90.9669 51.0825 90.721 51.1833 90.5335 51.3867C90.3459 51.5901 90.2512 51.8522 90.2512 52.1729Z" fill="white"/>
<path d="M94.0642 53.5143C94.0642 53.3824 94.1115 53.2669 94.208 53.1698C94.3045 53.0727 94.4193 53.025 94.554 53.025C94.6888 53.025 94.8035 53.0727 94.9 53.1698C94.9965 53.2669 95.0438 53.3824 95.0438 53.518C95.0438 53.6554 94.9965 53.7727 94.9 53.8698C94.8053 53.9651 94.6906 54.0109 94.554 54.0109C94.4156 54.0109 94.2991 53.9633 94.2044 53.8698C94.1115 53.7745 94.0642 53.6554 94.0642 53.5143Z" fill="white"/>
<path d="M15.2139 16.22H19.0343C21.0974 16.22 22.5232 17.1821 22.5232 19.3995C22.5232 21.681 21.3013 22.6816 19.1235 22.6816H17.7104V25.8867H15.2139V16.22ZM17.7104 20.6548H18.1311C19.0361 20.6548 19.9265 20.6548 19.9265 19.4764C19.9265 18.2596 19.098 18.2468 18.1311 18.2468H17.7104V20.6548Z" fill="#25033B"/>
<path d="M47.9216 25.9361H44.7641L42.3714 22.1611H42.3459V25.9361H39.8093V16.1191H43.6005C45.5289 16.1191 46.9911 17.0427 46.9911 19.1392C46.9911 20.4934 46.2409 21.6644 44.857 21.9118L47.9216 25.9361ZM42.3459 20.5191H42.5917C43.4202 20.5191 44.3507 20.3633 44.3507 19.295C44.3507 18.2266 43.4184 18.0708 42.5917 18.0708H42.3459V20.5191Z" fill="#25033B"/>
<path d="M13.9065 41.304H16.4267L21.0427 47.2708H21.0682V41.304H23.5884V51.0623H21.0682L16.4522 45.0827H16.4267V51.0623H13.9065V41.304Z" fill="#25033B"/>
<path d="M42.2366 49.3599L41.5665 51.0605H38.8825L42.6245 41.2692H45.385L49.0488 51.0605H46.352L45.7201 49.3599H42.2366ZM44.0048 44.2965H43.9793L42.9341 47.4137H45.0372L44.0048 44.2965Z" fill="#25033B"/>
<path d="M67.2545 24.1824L66.5844 25.883H63.9004L67.6424 16.0917H70.4029L74.0667 25.883H71.3699L70.738 24.1824H67.2545ZM69.0227 19.1191H68.9972L67.952 22.2362H70.0551L69.0227 19.1191Z" fill="#25033B"/>
</svg>
