<svg width="25" height="25" viewBox="0 0 25 25" fill="none" xmlns="http://www.w3.org/2000/svg">
<path d="M7.55954 12.5615C8.59683 14.6822 10.3158 16.3934 12.4412 17.421C12.5967 17.4947 12.7687 17.5266 12.9403 17.5136C13.1119 17.5006 13.2771 17.4432 13.4198 17.347L16.5492 15.2602C16.6877 15.1679 16.8469 15.1116 17.0126 15.0963C17.1782 15.0811 17.3451 15.1075 17.498 15.173L23.3526 17.6821C23.5515 17.7666 23.7175 17.9134 23.8257 18.1005C23.9339 18.2876 23.9783 18.5047 23.9524 18.7192C23.7673 20.1672 23.0608 21.4981 21.9652 22.4627C20.8695 23.4274 19.4598 23.9595 18 23.9596C13.4913 23.9596 9.1673 22.1685 5.97919 18.9804C2.79107 15.7923 1 11.4683 1 6.9596C1.00008 5.49981 1.53224 4.09011 2.49685 2.99444C3.46146 1.89877 4.79237 1.19227 6.24037 1.00722C6.45489 0.98126 6.67204 1.02572 6.85909 1.1339C7.04614 1.24208 7.19298 1.40812 7.27746 1.607L9.78877 7.46673C9.85373 7.6183 9.8802 7.78358 9.86582 7.94785C9.85144 8.11212 9.79666 8.27029 9.70636 8.40827L7.62681 11.5857C7.53216 11.7287 7.47621 11.8937 7.46442 12.0647C7.45263 12.2358 7.4854 12.4069 7.55954 12.5615V12.5615Z" stroke="#74E2C0" stroke-width="2" stroke-linecap="round" stroke-linejoin="round"/>
</svg>
