<svg width="24" height="24" viewBox="0 0 24 24" fill="none" xmlns="http://www.w3.org/2000/svg">
<path fill-rule="evenodd" clip-rule="evenodd" d="M12.5058 3.78519C10.5024 3.65963 8.52203 4.26967 6.93649 5.50077C5.35096 6.73187 4.26932 8.49938 3.89462 10.4715C3.51992 12.4435 3.87793 14.4846 4.90145 16.2114C5.00626 16.3882 5.0339 16.6004 4.97789 16.7981L4.09949 19.9006L7.20194 19.0222L7.40626 19.7438L7.78867 19.0986C9.5155 20.1222 11.5565 20.4802 13.5286 20.1055C15.5007 19.7308 17.2682 18.6491 18.4993 17.0636C19.7304 15.4781 20.3405 13.4977 20.2149 11.4943C20.0893 9.49082 19.2368 7.6021 17.8174 6.18268C16.398 4.76326 14.5093 3.91074 12.5058 3.78519ZM7.3081 20.5511C9.28698 21.636 11.5849 22.0016 13.8086 21.5791C16.1397 21.1362 18.2289 19.8577 19.6841 17.9835C21.1393 16.1094 21.8604 13.7685 21.712 11.4004C21.5636 9.03232 20.5559 6.79981 18.8781 5.12202C17.2003 3.44423 14.9678 2.43654 12.5997 2.28813C10.2315 2.13972 7.89069 2.86079 6.01656 4.31599C4.14242 5.77118 2.86389 7.86041 2.42098 10.1915C1.99847 12.4152 2.36412 14.7131 3.44899 16.692L2.65517 19.4958C2.65481 19.497 2.65445 19.4982 2.6541 19.4995C2.58006 19.755 2.57578 20.0258 2.64173 20.2836C2.708 20.5427 2.84274 20.7792 3.03183 20.9683C3.22091 21.1573 3.45739 21.2921 3.71645 21.3584C3.97432 21.4243 4.24513 21.42 4.50075 21.3459C4.50193 21.3456 4.50312 21.3453 4.5043 21.3449L7.3081 20.5511Z" fill="#74E2C0"/>
<path fill-rule="evenodd" clip-rule="evenodd" d="M9.37502 7.87488C9.37701 7.87497 9.37901 7.87501 9.38101 7.875L9.37503 7.12502L9.37502 7.87488ZM9.31543 7.87597C8.84092 7.89104 8.3889 8.08569 8.05156 8.42182C7.70021 8.77192 7.5019 9.24696 7.50002 9.74293C7.49785 10.6308 7.67112 11.5104 8.00987 12.3311C8.34868 13.152 8.84635 13.8978 9.47429 14.5258C10.1022 15.1537 10.848 15.6514 11.6689 15.9902C12.4892 16.3288 13.3684 16.502 14.2558 16.5C14.7515 16.496 15.2256 16.2969 15.5755 15.9458C15.9112 15.6089 16.1065 15.1582 16.1238 14.6844L14.2668 13.6194C14.2655 13.6188 14.2641 13.6185 14.2627 13.6185C14.2612 13.6185 14.2596 13.619 14.2583 13.6197C14.2582 13.6198 14.2581 13.6198 14.258 13.6198L12.7884 14.4997C12.578 14.6257 12.3193 14.6409 12.0957 14.5403C10.9241 14.0137 9.98633 13.0759 9.45971 11.9044C9.35917 11.6807 9.37432 11.422 9.50029 11.2116L10.3802 9.742C10.3802 9.74193 10.3803 9.74185 10.3803 9.74177C10.3811 9.74041 10.3815 9.73889 10.3815 9.73733C10.3815 9.73592 10.3812 9.73453 10.3806 9.73326L9.31543 7.87597ZM14.2594 17.25L14.2613 18C13.1756 18.0027 12.1002 17.7909 11.0966 17.3767C10.0931 16.9625 9.1813 16.3541 8.41362 15.5864C7.64595 14.8187 7.03754 13.907 6.62333 12.9034C6.20913 11.8999 5.9973 10.8244 6.00003 9.73876L6.00003 9.73797C6.00322 8.84495 6.3602 7.9896 6.9928 7.35927C7.62477 6.72955 8.48034 6.3757 9.37243 6.37502C9.62067 6.37365 9.86477 6.4389 10.0792 6.56401C10.2929 6.68863 10.4693 6.86807 10.5902 7.08371L11.685 8.99251L11.6885 8.99866C11.8181 9.22975 11.8847 9.49089 11.8814 9.75585C11.8781 10.0208 11.8052 10.2802 11.6699 10.508L11.6685 10.5103L11.0003 11.6264C11.3295 12.1968 11.8033 12.6706 12.3737 12.9998L13.4898 12.3315L13.492 12.3302C13.7198 12.1949 13.9793 12.1219 14.2442 12.1186C14.5092 12.1154 14.7703 12.1819 15.0014 12.3116L15.0075 12.3151L16.9163 13.4098C17.132 13.5307 17.3114 13.7072 17.436 13.9208C17.5614 14.1357 17.6267 14.3804 17.625 14.6292C17.6215 15.52 17.2669 16.3735 16.6381 17.0045C16.0089 17.6359 15.1561 17.9937 14.2647 18L14.2594 17.25Z" fill="#74E2C0"/>
</svg>
